<svg xmlns="http://www.w3.org/2000/svg" viewBox="0 0 193.006 43.305">
  <path fill="#124fc9" d="M46.12 14.287V.258H33.206L26.503 17.53a111.255 111.255 0 0 1 19.616-3.243M9.223 23.59v-6.42l2.068 5.502a109.176 109.176 0 0 1 9.016-3.355L12.912.258H0v28.26a81.89 81.89 0 0 1 9.223-4.93m10.63 12.47q-1.452.98-2.78 1.948l1.993 5.299h7.991l5.463-14.51a100.916 100.916 0 0 0-12.668 7.263m17.044-9.252v16.499h9.223V23.419q-4.706 1.477-9.223 3.387" overflow="visible"/>
  <path fill="#46e861" d="M6.485 43.304c9.231-8.644 27.21-21.65 54.403-26.142C43.034 15.007 17.482 20.206 0 31.662v11.642z" overflow="visible"/>
  <path fill="#124fc9" d="m79.707 0 5.58 13.96L90.818 0h5.266v19.292h-4.007v-5.216l.414-9.44-5.83 14.656H83.88L78.067 4.719l.414 9.357v5.216h-4.007V0zm32.638 10.946h-8.313v5.133h9.737v3.213h-13.76V0h13.71v3.246h-9.687v4.47h8.313zm4.09 8.346V0h6.277q2.715 0 4.851 1.143 2.153 1.142 3.345 3.229 1.193 2.07 1.226 4.703v1.01q0 2.699-1.192 4.802-1.176 2.103-3.362 3.262-2.17 1.143-4.951 1.143zm4.024-16.046v12.833h2.153q5.415 0 5.515-5.762v-1.11q0-5.829-5.15-5.961zm19.21 16.046h-4.008V0h4.007zM79.707 23.74l5.58 13.96 5.531-13.96h5.266v19.29h-4.007v-5.216l.414-9.439-5.83 14.655H83.88l-5.813-14.57.414 9.356v5.216h-4.007V23.74zm32.108 15.168h-7.981l-1.573 4.123h-4.057l7.799-19.291h3.693l7.766 19.291h-4.073zm-6.806-3.063h5.63l-2.814-7.32zm31.281 7.186h-4.007l-8.677-13.164V43.03h-4.024V23.74h4.024l8.677 13.181V23.74h4.007zm15.715-4.123h-7.981l-1.574 4.123h-4.057l7.8-19.291h3.693l7.766 19.291h-4.074zm-6.806-3.063h5.63l-2.815-7.32zm30.536 4.752-.38.398q-2.485 2.301-7.436 2.301-4.107 0-6.525-2.5-2.417-2.5-2.417-6.889v-1.076q0-4.388 2.302-6.872 2.301-2.484 6.342-2.484 3.56 0 5.63 1.623 2.07 1.606 2.484 4.785h-3.925q-.298-1.656-1.308-2.417-.993-.762-2.782-.762-4.703 0-4.703 6.21v1.06q0 3.03 1.325 4.57 1.325 1.54 3.776 1.54 2.45 0 3.61-.944v-3.312h-4.124v-2.931h8.131zm15.847-5.912h-8.312v5.134h9.737v3.212h-13.761V23.74h13.71v3.245h-9.686v4.471h8.312z" aria-label="Medi Manage" font-family="Roboto" font-size="33.914" font-weight="500" letter-spacing="0" paint-order="markers fill stroke" style="line-height:.7;-inkscape-font-specification:&quot;Roboto, Medium&quot;;font-variant-ligatures:no-common-ligatures;font-variant-caps:all-small-caps"/>
</svg>
